<?xml version="1.0" encoding="utf-8"?>
<!-- Generator: Adobe Illustrator 19.0.0, SVG Export Plug-In . SVG Version: 6.00 Build 0)  -->
<svg version="1.1" id="Calque_1" xmlns="http://www.w3.org/2000/svg" xmlns:xlink="http://www.w3.org/1999/xlink" x="0px" y="0px"
	 viewBox="0 0 200 200" style="enable-background:new 0 0 200 200;" xml:space="preserve">
<g>
	<path d="M67.6,122.3c-0.1-3.8-0.2-7.7-0.3-11.5c-0.1-1.9-0.2-3.9-0.2-5.8c-0.2-4.9-0.4-9.9-0.5-14.8c-0.1-2.7,0-5.4,0-8.1
		c0-1.1,0-2.4-0.6-3.2c-1.5-2-2.9-4.1-5-5.6c-4.6-3.3-9.5-2.9-14.3-1.3c-2.4,0.8-4.6,2.4-6.8,3.9c-2,1.4-3.9,3.1-5.8,4.6
		c-0.4,0.3-0.8,0.6-1.2,0.9c0,0.2,0,0.3,0.1,0.5c0.9,0.1,1.8,0.4,2.7,0.3c1.6-0.2,3.1-0.8,4.6-1.2c4.8-1.2,9.6-2.3,14.7-3.5
		c0.3,1.3,0.8,2.5,0.7,3.7c-0.1,3.4-0.3,6.9-0.5,10.3c-0.2,4.8-0.5,9.5-0.5,14.3c-0.1,3.4,0.1,6.8,0.3,10.3c0.1,1.6,0.2,3.2,0.3,4.8
		c0.2,3.3,0.4,6.6,0.7,10c-4.4-0.1-8.6-0.2-12.8-0.4c-4.1-0.1-8.1-0.3-12.4-0.5c0.3-0.4,0.4-0.5,0.5-0.6c2.8-3.1,5.5-6.1,8.3-9.1
		c2-2.1,3.6-4.6,6.6-5.5c1.2-0.4,1.4-2,0.5-3c-0.6-0.6-1.5-1.1-2.3-1.5c-3.8-1.8-7.9-2.5-12.1-1.8c-0.5,0.1-1.1-0.2-1.9-0.4
		c1.3-1.6,2.5-2.8,3.5-4.2c2.2-2.8,4.9-4.2,8.4-4.7c1.6-0.2,3.2-0.9,4.6-1.8c1.8-1.1,1.8-2.9,0.4-4.4c-1.7-1.8-4-2.2-6.1-3
		c-1.8-0.7-3.7-0.9-5.6,0c-1.1,0.6-2.1,1.3-3.2,1.9c-1.7,1-3.4,1.9-5.4,3.1c0.3-2.3,0.7-4.1,0.9-6c0.1-0.5,0.1-1.1,0-1.5
		c-0.6-1.5-1.4-2.9-2.1-4.3c-0.2-0.4-0.2-1,0-1.3c0.6-1,1.2-2,2-2.8c3.4-3.3,7.1-6.2,11.4-8.3c3.7-1.8,7.8-2.8,10.8-5.9
		c1.5-1.5,3-3,4.4-4.6c0.4-0.4,0.4-1.4,0.2-1.9c-1.4-3.3-4.3-5.1-7.4-6.4c-1.3-0.6-2.9-0.7-4.3-0.7c-3-0.1-6-0.6-8.8,0.9
		c-1.1,0.6-1.5,1.3-0.8,2.3c0.8,1.3,1.8,2.5,2.8,3.9c-2.1,2.8-4.2,5.7-6.4,8.4c-2.3,2.9-4.7,5.7-7.2,8.4c-1.6,1.8-3.5,3.3-5.3,5
		c-1.6,1.4-2,3.2-1.3,5.1c1.3,4.1,1.5,8.2,0.6,12.4c-0.3,1.2-0.7,2.6-0.4,3.8c0.4,1.3,0.2,2.5,0.1,3.6c-0.5,4.7-1,9.3-1.6,13.9
		c-0.4,3.4-0.9,6.7-1.3,10.1c-0.6,5.2,1,8.2,6,10c2.2,0.8,4.6,1.2,6.9,1.7c4,0.9,7.9,0.5,11.9,0c2.3-0.3,4.7-0.6,6.9-0.4
		c4.8,0.4,8.5,3.1,11.5,6.7c0.7,0.8,1.8,1.6,2.8,1.9c2.4,0.6,5-0.6,6.2-2.7c2-3.5,3.1-7.2,3.1-11.2c0-2.6-0.2-5.2-0.3-7.8
		C67.8,125.6,67.6,123.9,67.6,122.3z M26.1,103.8c0.1-1.4,0.1-2.8,0.3-4.1c0-0.3,0.6-0.9,0.9-0.9c1.7-0.1,3.5,0,5.3,0.1
		c1.2,0,1.6,0.6,1.1,1.7c-0.7,1.4-1.5,2.7-2.3,4c-0.9,1.3-1.9,2.5-2.9,3.7c-0.5,0.6-1.1,1.3-2,0.7c-0.2-0.1-0.5,0.1-0.7,0.1
		C25.8,107.2,26,105.5,26.1,103.8z M25.1,128.2c-0.4-3.5-0.6-6.7-0.2-10c0.2-1.4-0.1-2.8-0.1-4.2c0-0.3,0.1-0.8,0.3-0.9
		c0.1-0.1,0.6,0,0.9,0.2c1.9,1.3,3.8,2.7,5.8,3.8c0.9,0.5,0.9,1.1,0.7,1.8C31.2,122.7,28.7,125.7,25.1,128.2z"/>
	<path d="M147.2,115.6c-0.8-2.1-2.7-3.1-4.7-4.1c-3.3-1.6-6.8-1.6-10.3-1.9c-1-0.1-2.1,0.2-3.2,0.3c0-0.4,0-0.5,0-0.7
		c0-2,0.1-3.9,0-5.9c-0.1-1.2,0.8-1.2,1.5-1.3c1.9-0.2,3.9-0.1,5.9-0.3c3.2-0.3,6.4-0.7,9.6-1.3c1.4-0.2,1.5-0.9,0.8-2.1
		c-1.5-2.7-6.2-3.5-8.7-3.3c-2.8,0.2-5.6,0.4-8.5,0.6c0.3-3.2,0.5-6.1,0.7-9.1c1.2-0.4,2.4-0.8,3.6-1.2c3-1.1,6.1-2.1,9.1-3.3
		c0.9-0.4,1.9-1.1,2.2-2c0.5-1.2-0.5-2.1-1.4-2.8c-0.5-0.4-1.1-0.7-1.7-1c-3-1.3-6-1.9-9.1-0.3c-0.6,0.3-1.3,0.4-1.9,0.6
		c-0.2-5.2-0.4-10.3-0.8-15.3c-0.2-2.9-1.2-4.9-3.9-5.5c-1.3-0.3-2.6-0.4-3.9-0.3c-1.2,0.1-2.8-0.2-3.6,1.3c0.5,0.6,0.9,1.4,1.4,1.8
		c0.8,0.7,1,1.4,1,2.5c0,4.9,0,9.8,0,14.7c0,1,0,2,0,3c-2.1-0.2-4-0.4-5.8-0.6c0.6-1.7,1.1-3.1,1.5-4.6c0.6-2.2,0.1-4.1-1.6-5.7
		c-1.6-1.6-3.7-2.4-5.7-3.2c-1.2-0.5-2-0.2-2.8,0.9c1.6,1.4,1.5,3.1,0.8,4.9c-0.6,1.4-1,2.9-1.5,4.4c-1.3,4.4-3.6,8.4-6.3,12.1
		c-0.4,0.5-0.7,1-1,1.5c-0.3,0.5-0.7,0.9-1,1.3c5.2-1.3,10.1-3.1,14.1-6.6c1.7,0.9,3.4,1.8,5.3,2.9c-3.1,2.3-6.2,4.5-9.3,6.8
		c4.5-0.3,8.4-2.5,12.6-3.7c0,2.3,0,4.4,0,6.5c0,0.8-0.4,1-1.1,1c-0.4,0-0.7,0-1.1,0c-2.5,0.4-4.9,0.7-7.4,1.2
		c-3.4,0.7-6.9,1.6-10.3,2.4c1,2.8,3.1,4.5,5.7,4.3c2.4-0.1,4.8-0.4,7.2-0.7c1.9-0.2,3.9-0.5,5.6-0.7c0,2.5,0,4.8,0,7.1
		c0,0.9-0.6,0.9-1.2,1.1c-3,0.8-6.1,1.5-9.1,2.3c-1.6,0.4-3.3,1.5-4.8-0.2c-0.2-0.2-0.5-0.2-0.9-0.4c0.1,0.5,0.1,0.7,0.1,1
		c0.1,1.6,0.7,3.2,0.3,4.7c-0.7,3.2-1.8,6.3-2.7,9.4c-0.3,1.2-0.8,2.5-0.7,3.6c0.4,3.4,1.9,6.3,4.6,8.6c1.8,1.6,3.1,1.2,3.8-1.1
		c1.3-4.5,0.7-9,0.1-13.5c-0.4-2.6-0.8-5.3-1.2-8c4-0.4,7.8-0.7,11.7-1.1c-0.1,2.1-0.3,3.9-0.2,5.8c0,4.6,0.1,9.1,0.2,13.7
		c0,1.2-0.1,2.7,0.5,3.7c1.1,1.8,2.6,3.4,4.1,4.9c0.5,0.5,1.7,0.5,2.4,0.3c0.7-0.2,1.3-0.7,1.2-1.8c-0.1-1.6,0.1-3.3,0.2-5
		c0.2-2.9,0.5-5.9,0.8-9.1c0.8,1.4,1.5,2.6,2.1,3.9c1.8,4.1,4.9,7.2,8.1,10.2c0.8,0.7,1.8,1.1,2.7,0.2c1.3-1.2,2.8-2.4,3.7-3.9
		c2.2-3.9,2.9-8.3,3.4-12.6c0.2-1.7,0.4-3.4,0.2-5.1C148.4,119.8,147.9,117.6,147.2,115.6z M138.4,130.8c-2.1-0.1-3.9-0.7-5.5-1.9
		c-1.2-0.9-2.4-1.9-3.7-2.9c-1-0.7-1-1.8-1.1-2.9c-0.1-2.2,0-4.3,0-6.5c0-0.9,0.6-1.3,1.2-1.3c2.4,0,4.8,0.2,7.2,0.4
		c1.3,0.1,1.9,1.1,1.9,2.3C138.5,122.2,138.4,126.5,138.4,130.8z"/>
	<path d="M187.2,65.1c0.7-3.8-1.9-8-5.6-8.4c-2.2-0.2-4.4-0.4-6.6-0.2c-2.1,0.1-4.1,0.7-5.8,2.1c1.4,0.2,2.8,0.3,4.1,0.4
		c1.8,0.1,2.6,0.7,2.5,2.5c-0.1,2.3-0.2,4.5-0.3,6.8c-0.2,8.2-0.5,16.3-0.5,24.5c0,7.7,0.3,15.5,0.5,23.2c0,0.9,0,1.9,0.1,2.8
		c0.1,2.7,0.4,5.4,0.4,8.1c0,0.4-0.6,1.2-0.9,1.2c-1.4,0-2.9,0.1-4-0.5c-3.3-1.9-6.4-4.1-9.6-6.2c-0.4-0.2-0.8-0.4-1.2-0.5
		c0,0.1-0.1,0.3-0.1,0.4c0.7,1.2,1.4,2.4,2.2,3.5c3.7,5.2,7.4,10.4,11.2,15.5c1.3,1.7,2.7,3.3,4.2,4.8c2.1,2.1,4.1,1.9,5.7-0.6
		c2.2-3.4,2-7.3,2-11.1c0-4.3-0.2-8.5-0.4-12.8c-0.1-2.7-0.4-5.4-0.5-8.1c-0.2-2.9-0.4-5.8-0.4-8.7c0.2-9.4-0.5-18.9,1.1-28.3
		C186.2,71.9,186.6,68.5,187.2,65.1z"/>
	<path d="M162.4,81.9c0.4-2.2,1-4.4,1.5-6.6c0.1-0.4,0-0.8,0-1.2c-0.5,0.1-1,0-1.4,0.3c-0.6,0.4-0.9,1-1.4,1.5
		c-2.3,2.2-1.7,3.1-4.7,0.8c-2.3-1.7-4.7-3.4-7.1-5.2c-0.7,1.7-0.1,3,0.6,4.3c1.8,3.5,1.7,7.4,1.8,11.1c0.1,3-0.4,6.1-0.8,9.1
		c-0.3,1.9-0.1,3.6,1,5.2c0.3,0.5,0.4,1.1,0.6,1.6c0.7,2.1,2.1,3.6,4.1,4.4c0.9,0.4,1.8,0.3,2.1-0.8c0.5-2,1.1-4,1.4-6
		c0.3-2,0.1-4.1,0.4-6.2C161,90.2,161.6,86,162.4,81.9z"/>
</g>
</svg>
